<svg xmlns="http://www.w3.org/2000/svg" version="1.1" xmlns:xlink="http://www.w3.org/1999/xlink" width="1000" height="1000"><g clip-path="url(#SvgjsClipPath2219)"><rect width="1000" height="1000" fill="#ffffff"></rect><g transform="matrix(37.5,0,0,37.5,50,50)"><svg xmlns="http://www.w3.org/2000/svg" width="24" height="24" viewBox="0 0 24 24" fill="none" stroke="currentColor" stroke-width="2" stroke-linecap="round" stroke-linejoin="round" class="lucide lucide-kayak-icon lucide-kayak"><path d="M18 17a1 1 0 0 0-1 1v1a2 2 0 1 0 2-2z"></path><path d="M20.97 3.61a.45.45 0 0 0-.58-.58C10.2 6.6 6.6 10.2 3.03 20.39a.45.45 0 0 0 .58.58C13.8 17.4 17.4 13.8 20.97 3.61"></path><path d="m6.707 6.707 10.586 10.586"></path><path d="M7 5a2 2 0 1 0-2 2h1a1 1 0 0 0 1-1z"></path></svg></g></g><defs><clipPath id="SvgjsClipPath2219"><rect width="1000" height="1000" x="0" y="0" rx="0" ry="0"></rect></clipPath></defs></svg>